# xmcd
#
# Track frame offsets: 
#        183
#        19198
#        28003
#        37638
#        57740
#        82605
#        98590
#        113315
#        126498
#        142890
#        156110
#        168593
#        181248
#        200918
#        215573
#        228993
#
# Disc length: 3419 seconds
#
# Revision: 2
# Processed by: cddbd v1.5.2PL0 Copyright (c) Steve Scherf et al.
# Submitted via: ExactAudioCopyFreeDBPlugin 1.0
#
DISCID=cc0d5910
DTITLE=Ray Charles - Greatest Hits
DYEAR=1990
DGENRE=Blues
TTITLE0=I can't stop loving you
TTITLE1=Hit the road jack
TTITLE2=Busted
TTITLE3=What'd I said
TTITLE4=Ol' man river
TTITLE5=Let it be
TTITLE6=I can see clearly now
TTITLE7=Take these chains from my heart
TTITLE8=Georgia on my mind
TTITLE9=Crying time
TTITLE10=Yesterday
TTITLE11=Unchain my heart
TTITLE12=That lucky old sun
TTITLE13=Here we go again
TTITLE14=You are my sunshine
TTITLE15=I got a woman
EXTD=YEAR: 1990 ID3G: 11
EXTT0=
EXTT1=
EXTT2=
EXTT3=
EXTT4=
EXTT5=
EXTT6=
EXTT7=
EXTT8=
EXTT9=
EXTT10=
EXTT11=
EXTT12=
EXTT13=
EXTT14=
EXTT15=
PLAYORDER=
